<?xml version="1.0" standalone="no"?>
<!DOCTYPE svg PUBLIC "-//W3C//DTD SVG 20010904//EN"
 "http://www.w3.org/TR/2001/REC-SVG-20010904/DTD/svg10.dtd">
<svg version="1.0" xmlns="http://www.w3.org/2000/svg"
 width="260.000000pt" height="260.000000pt" viewBox="0 0 260.000000 260.000000"
 preserveAspectRatio="xMidYMid meet">
<metadata>
Created by potrace 1.14, written by Peter Selinger 2001-2017
</metadata>
<g transform="translate(0.000000,260.000000) scale(0.100000,-0.100000)"
fill="#000000" stroke="none">
<path d="M0 1300 l0 -1300 1300 0 1300 0 0 1300 0 1300 -1300 0 -1300 0 0
-1300z m1092 311 l3 -178 120 176 120 176 158 3 c86 1 157 -1 157 -4 0 -4 -67
-101 -149 -215 l-150 -207 160 -227 c87 -124 159 -228 159 -231 0 -2 -75 -3
-167 -2 l-167 3 -121 178 -120 178 -3 -180 -2 -181 -145 0 -145 0 0 445 0 445
145 0 145 0 2 -179z m878 -466 c49 -25 70 -62 70 -120 0 -44 -5 -58 -28 -83
-88 -94 -266 -50 -279 68 -5 57 20 106 68 132 41 22 129 24 169 3z"/>
</g>
</svg>
